<svg version="1.2" xmlns="http://www.w3.org/2000/svg" viewBox="0 0 41 41" width="41" height="41"><defs><clipPath clipPathUnits="userSpaceOnUse" id="cp1"><path d="m-1103-7350h1920v7635h-1920z"/></clipPath></defs><style>.a{fill:#fff}.b{fill:#222221}</style><g clip-path="url(#cp1)"><path class="a" d="m20.1 41c-11.1 0-20.1-9-20.1-20.1 0-11.1 9-20.1 20.1-20.1 11.1 0 20.1 9 20.1 20.1 0 11.1-9 20.1-20.1 20.1z"/><path class="b" d="m17 33h4.9v-12.2h3.5l0.3-4.1h-3.8v-2.4c0-0.9 0.2-1.3 1.2-1.3h2.6v-4.3h-3.4c-3.6 0-5.3 1.6-5.3 4.7v3.3h-2.5v4.1h2.5z"/></g></svg>