<svg version="1.2" xmlns="http://www.w3.org/2000/svg" viewBox="0 0 41 41" width="41" height="41"><defs><clipPath clipPathUnits="userSpaceOnUse" id="cp1"><path d="m-1216-7350h1920v7635h-1920z"/></clipPath></defs><style>.a{fill:#fff}.b{fill:#222221}</style><g clip-path="url(#cp1)"><path class="a" d="m20.8 41c-11.2 0-20.2-9-20.2-20.1 0-11.1 9-20.1 20.2-20.1 11.1 0 20.1 9 20.1 20.1 0 11.1-9 20.1-20.1 20.1z"/><path fill-rule="evenodd" class="b" d="m25.3 9.9c1.2 0.1 2 0.3 2.7 0.5 0.7 0.3 1.3 0.7 1.9 1.3 0.6 0.6 1 1.2 1.3 2 0.3 0.7 0.5 1.5 0.5 2.6 0.1 1.2 0.1 1.6 0.1 4.6 0 3 0 3.4-0.1 4.5 0 1.2-0.2 2-0.5 2.7-0.3 0.7-0.7 1.4-1.3 2-0.6 0.6-1.2 1-1.9 1.2-0.7 0.3-1.5 0.5-2.7 0.6-1.2 0-1.6 0-4.5 0-3 0-3.4 0-4.6 0-1.2-0.1-2-0.3-2.7-0.6-0.7-0.2-1.3-0.6-1.9-1.2-0.6-0.6-1-1.3-1.3-2-0.3-0.7-0.5-1.5-0.5-2.7-0.1-1.1-0.1-1.5-0.1-4.5 0-3 0-3.4 0.1-4.6 0-1.1 0.2-1.9 0.5-2.6 0.3-0.8 0.7-1.4 1.3-2 0.6-0.6 1.2-1 1.9-1.3 0.7-0.2 1.5-0.4 2.7-0.5 1.2 0 1.6 0 4.6 0 2.9 0 3.3 0 4.5 0zm-9 2c-1.1 0.1-1.7 0.2-2 0.4-0.6 0.2-0.9 0.4-1.3 0.8-0.4 0.4-0.6 0.8-0.8 1.3-0.2 0.4-0.4 1-0.4 2-0.1 1.2-0.1 1.5-0.1 4.5 0 2.9 0 3.3 0.1 4.4 0 1.1 0.2 1.7 0.4 2.1 0.2 0.5 0.4 0.9 0.8 1.3 0.4 0.3 0.7 0.6 1.3 0.8 0.3 0.1 0.9 0.3 2 0.4 1.2 0 1.5 0 4.5 0 2.9 0 3.2 0 4.4 0 1.1-0.1 1.7-0.3 2.1-0.4 0.5-0.2 0.8-0.5 1.2-0.8 0.4-0.4 0.6-0.8 0.8-1.3 0.2-0.4 0.4-1 0.4-2.1 0.1-1.1 0.1-1.5 0.1-4.4 0-3 0-3.3-0.1-4.5 0-1-0.2-1.6-0.4-2-0.2-0.5-0.4-0.9-0.8-1.3-0.4-0.4-0.7-0.6-1.2-0.8-0.4-0.2-1-0.3-2.1-0.4-1.2 0-1.5 0-4.4 0-3 0-3.3 0-4.5 0z"/><path fill-rule="evenodd" class="b" d="m26.4 20.9c0 3.1-2.5 5.7-5.6 5.7-3.2 0-5.7-2.6-5.7-5.7 0-3.1 2.5-5.7 5.7-5.7 3.1 0 5.6 2.6 5.6 5.7zm-2 0c0-2-1.6-3.7-3.6-3.7-2.1 0-3.7 1.7-3.7 3.7 0 2 1.6 3.7 3.7 3.7 2 0 3.6-1.7 3.6-3.7z"/><path class="b" d="m28 15c0 0.7-0.6 1.3-1.4 1.3-0.7 0-1.3-0.6-1.3-1.3 0-0.7 0.6-1.3 1.3-1.3 0.8 0 1.4 0.6 1.4 1.3z"/></g></svg>