<svg version="1.2" xmlns="http://www.w3.org/2000/svg" viewBox="0 0 41 41" width="41" height="41"><defs><clipPath clipPathUnits="userSpaceOnUse" id="cp1"><path d="m-1343-7350h1920v7635h-1920z"/></clipPath></defs><style>.a{fill:#fff}.b{fill:#222221}</style><g clip-path="url(#cp1)"><path class="a" d="m20.5 41c-11.1 0-20.1-9-20.1-20.1 0-11.1 9-20.1 20.1-20.1 11.2 0 20.2 9 20.2 20.1 0 11.1-9 20.1-20.2 20.1z"/><path class="b" d="m11.4 16.4h4.2v13.5h-4.2z"/><path class="b" d="m13.5 14.6c1.3 0 2.5-1.1 2.5-2.4 0-1.4-1.2-2.5-2.5-2.5-1.4 0-2.5 1.1-2.5 2.5 0 1.3 1.1 2.4 2.5 2.4z"/><path class="b" d="m22.2 22.8c0-1.9 0.9-3 2.6-3 1.5 0 2.2 1.1 2.2 3v7.1h4.2v-8.6c0-3.6-2.1-5.3-4.9-5.3-2.9 0-4.1 2.2-4.1 2.2v-1.8h-3.9v13.5h3.9z"/></g></svg>