<svg version="1.2" xmlns="http://www.w3.org/2000/svg" viewBox="0 0 41 41" width="41" height="41"><defs><clipPath clipPathUnits="userSpaceOnUse" id="cp1"><path d="m-1156-7350h1920v7635h-1920z"/></clipPath></defs><style>.a{fill:#fff}.b{fill:#222221}</style><g clip-path="url(#cp1)"><path class="a" d="m20.6 41c-11.1 0-20.1-9-20.1-20.1 0-11.1 9-20.1 20.1-20.1 11.1 0 20.1 9 20.1 20.1 0 11.1-9 20.1-20.1 20.1z"/><path class="b" d="m9.8 27.6c2 1.3 4.3 2 6.8 2 8.1 0 12.8-6.9 12.5-13.1q1.3-0.9 2.2-2.3-1.2 0.6-2.6 0.7c1-0.5 1.7-1.4 2-2.4q-1.3 0.8-2.8 1.1c-0.8-0.9-2-1.4-3.2-1.4-2.9 0-4.9 2.6-4.3 5.4-3.7-0.2-6.9-1.9-9.1-4.6-1.1 2-0.6 4.6 1.4 5.9q-1.1-0.1-2-0.6c0 2 1.4 4 3.5 4.4q-0.9 0.2-2 0.1c0.6 1.7 2.2 3 4.2 3-1.9 1.5-4.2 2.1-6.6 1.8z"/></g></svg>