<svg version="1.2" xmlns="http://www.w3.org/2000/svg" viewBox="0 0 41 41" width="41" height="41"><defs><clipPath clipPathUnits="userSpaceOnUse" id="cp1"><path d="m-1279-7350h1920v7635h-1920z"/></clipPath></defs><style>.a{fill:#fff}.b{fill:#222221}</style><g clip-path="url(#cp1)"><path class="a" d="m20.3 41c-11.1 0-20.1-9-20.1-20.1 0-11.1 9-20.1 20.1-20.1 11.1 0 20.1 9 20.1 20.1 0 11.1-9 20.1-20.1 20.1z"/><path fill-rule="evenodd" class="b" d="m31.3 20.6c0 5.9-4.8 10.8-10.8 10.8-1.9 0-3.7-0.5-5.2-1.4l-6 1.9 1.9-5.7c-1-1.7-1.5-3.6-1.5-5.6q0-0.2 0-0.5c0.2-5.7 5-10.2 10.8-10.2 5.9 0 10.7 4.6 10.8 10.4q0 0.2 0 0.3zm-1.7 0q0-0.3 0-0.7c-0.4-4.6-4.3-8.3-9.1-8.3-4.7 0-8.6 3.6-9.1 8.1q0 0.5 0 0.9c0 2 0.6 3.8 1.7 5.3l-1.1 3.4 3.5-1.2c1.4 1 3.1 1.5 5 1.5 5 0 9.1-4 9.1-9z"/><path class="b" d="m25.5 22.8c-0.3-0.2-1.6-0.8-1.9-0.9-0.2-0.1-0.4-0.1-0.6 0.2-0.1 0.2-0.6 0.8-0.8 1-0.2 0.2-0.3 0.2-0.6 0-0.2-0.1-1.1-0.4-2.1-1.3-0.8-0.7-1.3-1.5-1.5-1.8-0.1-0.2 0-0.4 0.1-0.5 0.2-0.1 0.3-0.3 0.4-0.5q0.1 0 0.1-0.1 0.1-0.1 0.2-0.3c0.1-0.2 0-0.3 0-0.5-0.1-0.1-0.6-1.4-0.8-1.9-0.3-0.6-0.5-0.5-0.6-0.5q-0.3 0-0.5 0c-0.2 0-0.5 0.1-0.8 0.3-0.2 0.3-0.9 0.9-0.9 2.2q0 0.5 0.2 0.9c0.2 1 0.8 1.7 0.9 1.9 0.1 0.1 1.8 2.9 4.5 3.9 2.7 1.1 2.7 0.7 3.2 0.7 0.5-0.1 1.6-0.6 1.8-1.3 0.2-0.6 0.2-1.1 0.2-1.2-0.1-0.1-0.3-0.2-0.5-0.3z"/></g></svg>