<svg version="1.2" xmlns="http://www.w3.org/2000/svg" viewBox="0 0 42 41" width="42" height="41"><defs><clipPath clipPathUnits="userSpaceOnUse" id="cp1"><path d="m-1401-7350h1920v7635h-1920z"/></clipPath></defs><style>.a{fill:#fff}.b{fill:#222221}</style><g clip-path="url(#cp1)"><path class="a" d="m20.9 41c-11.1 0-20.1-9-20.1-20.1 0-11.1 9-20.1 20.1-20.1 11.1 0 20.1 9 20.1 20.1 0 11.1-9 20.1-20.1 20.1z"/><path class="b" d="m31.8 15.4c-0.3-1-1-1.8-2-2-1.8-0.5-8.9-0.5-8.9-0.5 0 0-7.1 0-8.9 0.5-1 0.2-1.7 1-2 2-0.5 1.8-0.5 5.5-0.5 5.5 0 0 0 3.7 0.5 5.5 0.3 1 1 1.8 2 2 1.8 0.5 8.9 0.5 8.9 0.5 0 0 7.1 0 8.9-0.5 1-0.2 1.7-1 2-2 0.5-1.8 0.5-5.5 0.5-5.5 0 0 0-3.7-0.5-5.5z"/><path class="a" d="m18.6 24.3v-6.8l5.9 3.4z"/></g></svg>